<svg width="150" height="42" viewBox="0 0 150 42" fill="none" xmlns="http://www.w3.org/2000/svg">
  <path
    d="M64.3016 15.6108C64.3016 19.5667 61.2811 22.7041 57.1304 22.7041C52.9797 22.7041 49.9592 19.5667 49.9592 15.6108C49.9592 11.655 52.9797 8.51758 57.1304 8.51758C61.2811 8.51758 64.3016 11.655 64.3016 15.6108ZM57.1304 19.781C59.313 19.781 61.1447 18.2221 61.1447 15.6108C61.1447 12.9996 59.313 11.4406 57.1304 11.4406C54.9479 11.4406 53.1161 12.9996 53.1161 15.6108C53.1161 18.2221 54.9479 19.781 57.1304 19.781Z"
    fill="white" />
  <path
    d="M75.7085 15.8447V22.4312H72.7854V17.1698C72.7854 16.059 72.2983 15.2601 71.0706 15.2601C69.8819 15.2601 69.1219 16.2344 69.1219 17.7739V22.4312H66.1989V12.7657H69.1219V14.1493C69.8234 13.1555 70.8562 12.4929 72.2593 12.4929C74.4613 12.4929 75.7085 13.8765 75.7085 15.8447Z"
    fill="white" />
  <path
    d="M87.2389 18.3195H80.0872C80.2431 19.5472 81.237 20.2097 82.4062 20.2097C83.5169 20.2097 84.238 19.781 84.8615 18.6897L86.9661 19.8784C86.1087 21.6518 84.7251 22.7041 82.2893 22.7041C79.6585 22.7041 77.3201 20.6384 77.3201 17.5985C77.3201 14.5585 79.5221 12.4929 82.4841 12.4929C85.3877 12.4929 87.2389 14.6365 87.2389 17.3257V18.3195ZM82.4257 14.7534C81.3344 14.7534 80.5354 15.338 80.2042 16.2734H84.6082C84.3744 15.2795 83.5169 14.7534 82.4257 14.7534Z"
    fill="white" />
  <path
    d="M92.3103 17.1113V22.4312H89.1534V8.79039H99.4814V11.5575H92.3103V14.4221H98.9163V17.1113H92.3103Z"
    fill="white" />
  <path
    d="M100.986 18.6118V12.7657H103.909V17.9687C103.909 19.2159 104.513 19.9369 105.624 19.9369C106.93 19.9369 107.573 18.8262 107.573 17.4231V12.7657H110.496V22.4312H107.573V21.0282C107.027 21.983 106.228 22.7041 104.572 22.7041C102.603 22.7041 100.986 21.2425 100.986 18.6118Z"
    fill="white" />
  <path
    d="M122.123 15.8447V22.4312H119.2V17.1698C119.2 16.059 118.713 15.2601 117.485 15.2601C116.297 15.2601 115.537 16.2344 115.537 17.7739V22.4312H112.614V12.7657H115.537V14.1493C116.238 13.1555 117.271 12.4929 118.674 12.4929C120.876 12.4929 122.123 13.8765 122.123 15.8447Z"
    fill="white" />
  <path
    d="M133.808 15.8447V22.4312H130.885V17.1698C130.885 16.059 130.397 15.2601 129.17 15.2601C127.981 15.2601 127.221 16.2344 127.221 17.7739V22.4312H124.298V12.7657H127.221V14.1493C127.923 13.1555 128.955 12.4929 130.358 12.4929C132.561 12.4929 133.808 13.8765 133.808 15.8447Z"
    fill="white" />
  <path
    d="M145.338 18.3195H138.186C138.342 19.5472 139.336 20.2097 140.505 20.2097C141.616 20.2097 142.337 19.781 142.961 18.6897L145.065 19.8784C144.208 21.6518 142.824 22.7041 140.388 22.7041C137.758 22.7041 135.419 20.6384 135.419 17.5985C135.419 14.5585 137.621 12.4929 140.583 12.4929C143.487 12.4929 145.338 14.6365 145.338 17.3257V18.3195ZM140.525 14.7534C139.434 14.7534 138.635 15.338 138.303 16.2734H142.707C142.474 15.2795 141.616 14.7534 140.525 14.7534Z"
    fill="white" />
  <path d="M147.077 22.4312V8.79039H150V22.4312H147.077Z" fill="white" />
  <path
    d="M55.3372 30.603C55.3372 31.9341 54.4678 32.7855 53.3646 32.7855C52.2613 32.7855 51.3919 31.9341 51.3919 30.603C51.3919 29.2719 52.2613 28.4205 53.3646 28.4205C54.4678 28.4205 55.3372 29.2719 55.3372 30.603ZM53.3646 32.4737C54.2999 32.4737 54.9775 31.7242 54.9775 30.603C54.9775 29.4818 54.2999 28.7323 53.3646 28.7323C52.4292 28.7323 51.7517 29.4818 51.7517 30.603C51.7517 31.7242 52.4292 32.4737 53.3646 32.4737Z"
    fill="white" />
  <path
    d="M58.5603 30.6809V32.7016H58.2125V30.7169C58.2125 30.2073 57.8707 29.9434 57.433 29.9434C56.9414 29.9434 56.4737 30.4051 56.4737 31.0167V32.7016H56.1259V29.7276H56.4737V30.2792C56.6895 29.8895 57.0853 29.6436 57.517 29.6436C58.0626 29.6436 58.5603 29.9314 58.5603 30.6809Z"
    fill="white" />
  <path
    d="M62.1086 31.2446H59.5723C59.5903 31.9221 60.028 32.4857 60.6935 32.4857C61.2811 32.4857 61.5929 32.156 61.7728 31.7662L62.0246 31.9161C61.7668 32.4498 61.3471 32.7855 60.6755 32.7855C59.8661 32.7855 59.2245 32.132 59.2245 31.2146C59.2245 30.3032 59.8721 29.6436 60.6935 29.6436C61.5809 29.6436 62.1086 30.2672 62.1086 31.1306V31.2446ZM60.6935 29.9434C60.1119 29.9434 59.6682 30.3692 59.5723 30.9448H61.7308C61.7308 30.2792 61.2152 29.9434 60.6935 29.9434Z"
    fill="white" />
  <path
    d="M64.5594 32.7016V28.5044H66.2443C67.1077 28.5044 67.6713 29.0021 67.6713 29.7935C67.6713 30.585 67.1077 31.0827 66.2443 31.0827H64.9192V32.7016H64.5594ZM64.9192 28.8162V30.7709H66.2323C66.9578 30.7709 67.3116 30.4171 67.3116 29.7935C67.3116 29.17 66.9578 28.8162 66.2323 28.8162H64.9192Z"
    fill="white" />
  <path d="M68.3462 32.7016V28.5044H68.694V32.7016H68.3462Z" fill="white" />
  <path
    d="M71.9868 32.7016H71.639C71.5491 32.5877 71.4472 32.3898 71.4472 32.06C71.3033 32.4737 70.8476 32.7855 70.3979 32.7855C69.7923 32.7855 69.4085 32.4018 69.4085 31.8801C69.4085 31.3105 69.8702 31.0107 70.3979 30.9328L71.4592 30.7589V30.615C71.4592 30.1653 71.1654 29.9554 70.6857 29.9554C70.158 29.9554 69.8882 30.2312 69.8882 30.5131C69.8882 30.543 69.8822 30.555 69.9002 30.603L69.6184 30.6989C69.5884 30.633 69.5764 30.555 69.5764 30.4711C69.5764 30.0094 70.0441 29.6436 70.6857 29.6436C71.4112 29.6436 71.8069 30.0034 71.8069 30.579V31.9581C71.8069 32.2999 71.8429 32.4618 71.9868 32.7016ZM70.4279 32.4618C71.1054 32.4618 71.4592 31.7842 71.4592 31.2086V31.0587L70.4578 31.2266C70.0081 31.3045 69.7563 31.5384 69.7563 31.8741C69.7563 32.2159 70.0201 32.4618 70.4279 32.4618Z"
    fill="white" />
  <path
    d="M72.3096 29.9914V29.7276H72.8313V28.9241H73.179V29.7276H73.9225V29.9914H73.179V32.0061C73.179 32.3238 73.3229 32.4857 73.6047 32.4857C73.6707 32.4857 73.7606 32.4677 73.8266 32.4498L73.8566 32.7376C73.7666 32.7675 73.6827 32.7855 73.5328 32.7855C73.149 32.7855 72.8313 32.5397 72.8313 31.9881V29.9914H72.3096Z"
    fill="white" />
  <path
    d="M74.2762 29.9914V29.7276H74.7499V29.11C74.7499 28.5764 75.0077 28.2046 75.6013 28.2046C75.7152 28.2046 75.8172 28.2286 75.8831 28.2586L75.8291 28.5524C75.7572 28.5224 75.6852 28.5044 75.5833 28.5044C75.3255 28.5044 75.0976 28.6663 75.0976 29.08V29.7276H75.8232V29.9914H75.0976V32.7016H74.7499V29.9914H74.2762Z"
    fill="white" />
  <path
    d="M79.1283 31.2146C79.1283 32.2099 78.4208 32.7855 77.6053 32.7855C76.7899 32.7855 76.0823 32.2099 76.0823 31.2146C76.0823 30.2193 76.7899 29.6436 77.6053 29.6436C78.4208 29.6436 79.1283 30.2193 79.1283 31.2146ZM77.6053 32.4857C78.2769 32.4857 78.7805 31.9521 78.7805 31.2146C78.7805 30.4771 78.2769 29.9434 77.6053 29.9434C76.9338 29.9434 76.4301 30.4771 76.4301 31.2146C76.4301 31.9521 76.9338 32.4857 77.6053 32.4857Z"
    fill="white" />
  <path
    d="M81.2856 29.6736L81.2257 29.9734C81.1597 29.9554 81.0818 29.9434 81.0038 29.9434C80.5541 29.9434 80.1824 30.4651 80.1824 31.0767V32.7016H79.8346V29.7276H80.1824V30.2912C80.3083 29.9374 80.6501 29.6436 81.0398 29.6436C81.1357 29.6436 81.1957 29.6496 81.2856 29.6736Z"
    fill="white" />
  <path
    d="M85.7405 30.4891V32.7016H85.3928V30.573C85.3928 30.1413 85.1649 29.9434 84.7632 29.9434C84.3555 29.9434 83.9537 30.3212 83.9537 31.1366V32.7016H83.606V30.597C83.606 30.2133 83.4081 29.9434 83.0064 29.9434C82.5687 29.9434 82.1849 30.3692 82.1849 31.1067V32.7016H81.8372V29.7276H82.1849V30.2253C82.3288 29.9195 82.6766 29.6436 83.0903 29.6436C83.4501 29.6436 83.7859 29.8535 83.9058 30.2432C84.0797 29.9075 84.4334 29.6436 84.8471 29.6436C85.3748 29.6436 85.7405 29.9554 85.7405 30.4891Z"
    fill="white" />
  <path
    d="M86.4825 32.7016V32.2099H86.9621V32.7016L86.5844 33.3851L86.4884 33.3492L86.6623 32.7016H86.4825Z"
    fill="white" />
  <path
    d="M89.4334 32.7016V28.5044H91.9157V28.8162H89.7931V30.3752H91.7478V30.6869H89.7931V32.3898H91.9337V32.7016H89.4334Z"
    fill="white" />
  <path
    d="M95.0982 30.6809V32.7016H94.7505V30.7169C94.7505 30.2073 94.4087 29.9434 93.971 29.9434C93.4793 29.9434 93.0117 30.4051 93.0117 31.0167V32.7016H92.6639V29.7276H93.0117V30.2792C93.2275 29.8895 93.6232 29.6436 94.0549 29.6436C94.6006 29.6436 95.0982 29.9314 95.0982 30.6809Z"
    fill="white" />
  <path
    d="M98.6166 28.5044V32.7016H98.2688V32.12C98.0949 32.4797 97.6992 32.7855 97.1895 32.7855C96.3501 32.7855 95.7625 32.102 95.7625 31.2146C95.7625 30.3272 96.3621 29.6436 97.1655 29.6436C97.6512 29.6436 98.0589 29.8835 98.2688 30.2972V28.5044H98.6166ZM97.2135 32.4857C97.8551 32.4857 98.3048 31.9461 98.3048 31.2146C98.3048 30.4831 97.8551 29.9434 97.2135 29.9434C96.56 29.9434 96.1222 30.4651 96.1222 31.2146C96.1222 31.9641 96.56 32.4857 97.2135 32.4857Z"
    fill="white" />
  <path d="M99.5265 32.7016V28.5044H99.8742V32.7016H99.5265Z" fill="white" />
  <path
    d="M103.466 31.2446H100.929C100.947 31.9221 101.385 32.4857 102.051 32.4857C102.638 32.4857 102.95 32.156 103.13 31.7662L103.382 31.9161C103.124 32.4498 102.704 32.7855 102.033 32.7855C101.223 32.7855 100.582 32.132 100.582 31.2146C100.582 30.3032 101.229 29.6436 102.051 29.6436C102.938 29.6436 103.466 30.2672 103.466 31.1306V31.2446ZM102.051 29.9434C101.469 29.9434 101.025 30.3692 100.929 30.9448H103.088C103.088 30.2792 102.572 29.9434 102.051 29.9434Z"
    fill="white" />
  <path
    d="M104.435 30.4171C104.435 30.7469 104.753 30.9028 105.274 30.9987C105.856 31.1127 106.258 31.3465 106.258 31.8622C106.258 32.3178 105.892 32.7855 105.173 32.7855C104.537 32.7855 104.123 32.4018 103.943 31.9341L104.243 31.7542C104.387 32.2099 104.693 32.4857 105.173 32.4857C105.646 32.4857 105.91 32.2399 105.91 31.8801C105.91 31.5264 105.658 31.3645 105.107 31.2686C104.555 31.1726 104.111 30.9088 104.111 30.4051C104.111 29.9434 104.555 29.6436 105.101 29.6436C105.7 29.6436 106.042 29.9255 106.228 30.3572L105.946 30.5191C105.784 30.1113 105.472 29.9434 105.107 29.9434C104.741 29.9434 104.435 30.1113 104.435 30.4171Z"
    fill="white" />
  <path
    d="M107.234 30.4171C107.234 30.7469 107.552 30.9028 108.073 30.9987C108.655 31.1127 109.057 31.3465 109.057 31.8622C109.057 32.3178 108.691 32.7855 107.971 32.7855C107.336 32.7855 106.922 32.4018 106.742 31.9341L107.042 31.7542C107.186 32.2099 107.492 32.4857 107.971 32.4857C108.445 32.4857 108.709 32.2399 108.709 31.8801C108.709 31.5264 108.457 31.3645 107.906 31.2686C107.354 31.1726 106.91 30.9088 106.91 30.4051C106.91 29.9434 107.354 29.6436 107.9 29.6436C108.499 29.6436 108.841 29.9255 109.027 30.3572L108.745 30.5191C108.583 30.1113 108.271 29.9434 107.906 29.9434C107.54 29.9434 107.234 30.1113 107.234 30.4171Z"
    fill="white" />
  <path
    d="M111.503 32.7016V28.5044H113.187C114.051 28.5044 114.614 29.0021 114.614 29.7935C114.614 30.585 114.051 31.0827 113.187 31.0827H111.862V32.7016H111.503ZM111.862 28.8162V30.7709H113.175C113.901 30.7709 114.255 30.4171 114.255 29.7935C114.255 29.17 113.901 28.8162 113.175 28.8162H111.862Z"
    fill="white" />
  <path
    d="M117.891 31.2146C117.891 32.2099 117.184 32.7855 116.368 32.7855C115.553 32.7855 114.845 32.2099 114.845 31.2146C114.845 30.2193 115.553 29.6436 116.368 29.6436C117.184 29.6436 117.891 30.2193 117.891 31.2146ZM116.368 32.4857C117.04 32.4857 117.544 31.9521 117.544 31.2146C117.544 30.4771 117.04 29.9434 116.368 29.9434C115.697 29.9434 115.193 30.4771 115.193 31.2146C115.193 31.9521 115.697 32.4857 116.368 32.4857Z"
    fill="white" />
  <path
    d="M118.845 30.4171C118.845 30.7469 119.163 30.9028 119.685 30.9987C120.266 31.1127 120.668 31.3465 120.668 31.8622C120.668 32.3178 120.302 32.7855 119.583 32.7855C118.947 32.7855 118.534 32.4018 118.354 31.9341L118.653 31.7542C118.797 32.2099 119.103 32.4857 119.583 32.4857C120.056 32.4857 120.32 32.2399 120.32 31.8801C120.32 31.5264 120.068 31.3645 119.517 31.2686C118.965 31.1726 118.522 30.9088 118.522 30.4051C118.522 29.9434 118.965 29.6436 119.511 29.6436C120.11 29.6436 120.452 29.9255 120.638 30.3572L120.356 30.5191C120.194 30.1113 119.883 29.9434 119.517 29.9434C119.151 29.9434 118.845 30.1113 118.845 30.4171Z"
    fill="white" />
  <path
    d="M121.644 30.4171C121.644 30.7469 121.962 30.9028 122.484 30.9987C123.065 31.1127 123.467 31.3465 123.467 31.8622C123.467 32.3178 123.101 32.7855 122.382 32.7855C121.746 32.7855 121.332 32.4018 121.153 31.9341L121.452 31.7542C121.596 32.2099 121.902 32.4857 122.382 32.4857C122.855 32.4857 123.119 32.2399 123.119 31.8801C123.119 31.5264 122.867 31.3645 122.316 31.2686C121.764 31.1726 121.32 30.9088 121.32 30.4051C121.32 29.9434 121.764 29.6436 122.31 29.6436C122.909 29.6436 123.251 29.9255 123.437 30.3572L123.155 30.5191C122.993 30.1113 122.682 29.9434 122.316 29.9434C121.95 29.9434 121.644 30.1113 121.644 30.4171Z"
    fill="white" />
  <path
    d="M124.184 32.7016V29.7276H124.532V32.7016H124.184ZM124.136 29.164V28.6843H124.579V29.164H124.136Z"
    fill="white" />
  <path
    d="M125.443 32.7016V28.5044H125.79V30.2912C126.012 29.9075 126.42 29.6436 126.942 29.6436C127.727 29.6436 128.297 30.3272 128.297 31.2146C128.297 32.102 127.709 32.7855 126.87 32.7855C126.366 32.7855 125.952 32.4618 125.79 32.126V32.7016H125.443ZM126.846 32.4857C127.487 32.4857 127.937 31.9641 127.937 31.2146C127.937 30.4651 127.487 29.9434 126.846 29.9434C126.204 29.9434 125.754 30.4831 125.754 31.2146C125.754 31.9461 126.192 32.4857 126.846 32.4857Z"
    fill="white" />
  <path
    d="M128.962 32.7016V29.7276H129.31V32.7016H128.962ZM128.914 29.164V28.6843H129.358V29.164H128.914Z"
    fill="white" />
  <path d="M130.221 32.7016V28.5044H130.568V32.7016H130.221Z" fill="white" />
  <path
    d="M131.48 32.7016V29.7276H131.827V32.7016H131.48ZM131.432 29.164V28.6843H131.875V29.164H131.432Z"
    fill="white" />
  <path
    d="M132.457 29.9914V29.7276H132.978V28.9241H133.326V29.7276H134.07V29.9914H133.326V32.0061C133.326 32.3238 133.47 32.4857 133.752 32.4857C133.818 32.4857 133.908 32.4677 133.974 32.4498L134.004 32.7376C133.914 32.7675 133.83 32.7855 133.68 32.7855C133.296 32.7855 132.978 32.5397 132.978 31.9881V29.9914H132.457Z"
    fill="white" />
  <path
    d="M134.741 32.7016V29.7276H135.089V32.7016H134.741ZM134.693 29.164V28.6843H135.137V29.164H134.693Z"
    fill="white" />
  <path
    d="M138.639 31.2446H136.103C136.121 31.9221 136.559 32.4857 137.224 32.4857C137.812 32.4857 138.124 32.156 138.303 31.7662L138.555 31.9161C138.297 32.4498 137.878 32.7855 137.206 32.7855C136.397 32.7855 135.755 32.132 135.755 31.2146C135.755 30.3032 136.403 29.6436 137.224 29.6436C138.112 29.6436 138.639 30.2672 138.639 31.1306V31.2446ZM137.224 29.9434C136.643 29.9434 136.199 30.3692 136.103 30.9448H138.261C138.261 30.2792 137.746 29.9434 137.224 29.9434Z"
    fill="white" />
  <path
    d="M139.609 30.4171C139.609 30.7469 139.927 30.9028 140.448 30.9987C141.03 31.1127 141.431 31.3465 141.431 31.8622C141.431 32.3178 141.066 32.7855 140.346 32.7855C139.711 32.7855 139.297 32.4018 139.117 31.9341L139.417 31.7542C139.561 32.2099 139.867 32.4857 140.346 32.4857C140.82 32.4857 141.084 32.2399 141.084 31.8801C141.084 31.5264 140.832 31.3645 140.28 31.2686C139.729 31.1726 139.285 30.9088 139.285 30.4051C139.285 29.9434 139.729 29.6436 140.274 29.6436C140.874 29.6436 141.216 29.9255 141.402 30.3572L141.12 30.5191C140.958 30.1113 140.646 29.9434 140.28 29.9434C139.915 29.9434 139.609 30.1113 139.609 30.4171Z"
    fill="white" />
  <path
    d="M19.1844 16.7133C22.5572 16.8632 26.6045 16.4885 30.6518 16.8632C31.701 16.9382 32.6754 17.2379 33.6497 17.6876C36.198 18.8119 37.2473 20.8355 36.4229 23.5337C35.3736 26.8315 33.9495 29.9044 32.1507 32.9024C32.0008 33.2022 31.8509 33.577 31.4762 33.502C31.1764 33.4271 31.1014 32.9774 31.0265 32.7525C29.8273 29.6796 27.7287 27.7309 24.281 27.581C22.4073 27.4311 20.5335 27.581 18.5848 27.656C17.5356 27.656 16.4113 27.7309 15.362 27.5061C13.4883 27.1313 11.9143 26.3069 10.94 24.5081C9.74078 22.1846 8.31674 20.0111 6.96764 17.7626C6.51795 17.0131 6.66784 16.7883 7.49229 16.7883C11.2398 16.7133 14.8374 16.7133 19.1844 16.7133Z"
    fill="#EA5627" />
  <path
    d="M19.1095 31.0293C21.1332 31.0293 23.1568 31.1792 25.1805 31.479C28.0286 31.9287 29.3776 33.5776 29.2277 36.5006C29.0778 38.8241 27.8787 40.7728 26.1548 41.3724C24.2061 42.0469 21.433 41.2225 20.0089 39.6485C18.0603 37.4 16.8611 34.7018 15.6619 32.0036C15.3621 31.404 15.512 31.1042 16.2615 31.1042C17.2358 31.0293 18.1352 31.0293 19.1095 31.0293Z"
    fill="#EA5627" />
  <path
    d="M45.3418 2.92304C43.8428 1.87374 42.044 1.42404 40.2452 1.0493C35.5233 0.0749496 30.7266 0 27.8035 0C20.0837 0 14.1627 0.449698 8.24165 1.12425C5.91821 1.42404 3.66972 1.79879 1.49618 2.77314C-0.152714 3.52263 -0.377554 4.27213 0.521843 5.84607C1.42124 7.34507 2.32063 8.76911 3.07013 10.2681C4.19437 12.4416 5.99317 13.6408 8.39156 13.7907C10.0405 13.9406 11.7643 13.7907 13.4132 13.7158C19.1094 13.341 24.7306 13.0412 30.4268 13.0412C34.549 13.0412 37.6219 14.84 39.1209 18.8873C39.1959 19.1122 39.1959 19.412 39.5706 19.412C39.8704 19.412 39.9454 19.1122 40.0203 18.8873C42.4187 14.84 44.5173 10.6429 46.2412 6.22082C46.9907 4.87173 46.6159 3.89738 45.3418 2.92304ZM36.7975 4.42203C35.1486 4.94668 33.3498 5.17153 31.626 5.24648C28.8528 5.39638 26.0797 5.62123 23.3065 5.54628C19.5591 5.47133 15.7366 5.47133 11.9891 4.87173C11.3146 4.79678 10.5651 4.57193 9.89055 4.42203C9.59076 4.34708 9.14106 4.27213 9.14106 3.82243C9.14106 3.44768 9.5158 3.29779 9.8156 3.22284C10.4901 3.07294 11.1647 2.84809 11.9142 2.77314C19.5591 1.79879 27.2039 1.79879 34.8488 2.77314C35.5233 2.84809 36.1979 3.07294 36.7975 3.22284C37.0973 3.29779 37.472 3.44768 37.472 3.82243C37.472 4.27213 37.0973 4.34708 36.7975 4.42203Z"
    fill="#EA5627" />
</svg>
  