<svg width="143" height="34" viewBox="0 0 143 34" fill="none" xmlns="http://www.w3.org/2000/svg">
<path d="M14.8127 13.8414C17.4169 13.9571 20.5419 13.6678 23.6669 13.9571C24.4771 14.015 25.2294 14.2465 25.9817 14.5937C27.9493 15.4617 28.7595 17.0242 28.1229 19.1076C27.3127 21.6539 26.2132 24.0266 24.8243 26.3414C24.7086 26.5729 24.5928 26.8622 24.3035 26.8044C24.072 26.7465 24.0141 26.3993 23.9563 26.2256C23.0303 23.853 21.41 22.3483 18.7479 22.2326C17.3012 22.1168 15.8544 22.2326 14.3498 22.2905C13.5396 22.2905 12.6715 22.3483 11.8613 22.1747C10.4146 21.8854 9.19931 21.2488 8.447 19.8599C7.52107 18.0659 6.42153 16.3877 5.37986 14.6516C5.03264 14.0729 5.14838 13.8992 5.78495 13.8992C8.67848 13.8414 11.4563 13.8414 14.8127 13.8414Z" fill="#EA5627"/>
<path d="M14.7548 24.8946C16.3173 24.8946 17.8798 25.0104 19.4423 25.2418C21.6414 25.5891 22.6831 26.8622 22.5673 29.1192C22.4516 30.9131 21.5257 32.4178 20.1947 32.8807C18.69 33.4016 16.5488 32.765 15.4493 31.5497C13.9446 29.8136 13.0187 27.7303 12.0928 25.6469C11.8613 25.184 11.9771 24.9525 12.5558 24.9525C13.3081 24.8946 14.0025 24.8946 14.7548 24.8946Z" fill="#EA5627"/>
<path d="M35.0094 3.19321C33.852 2.38302 32.4631 2.0358 31.0742 1.74645C27.4284 0.994133 23.7247 0.936262 21.4678 0.936262C15.5071 0.936262 10.9353 1.28348 6.36357 1.80432C4.56959 2.0358 2.83348 2.32515 1.15524 3.07747C-0.117914 3.65617 -0.291518 4.23488 0.402927 5.45016C1.09737 6.60757 1.79181 7.7071 2.37052 8.86451C3.23857 10.5428 4.62747 11.4687 6.47932 11.5844C7.75247 11.7002 9.08349 11.5844 10.3566 11.5266C14.7548 11.2372 19.0951 11.0057 23.4932 11.0057C26.6761 11.0057 29.0488 12.3946 30.2062 15.5196C30.2641 15.6932 30.2641 15.9247 30.5534 15.9247C30.7849 15.9247 30.8428 15.6932 30.9006 15.5196C32.7525 12.3946 34.3729 9.15387 35.7039 5.73951C36.2826 4.69784 35.9932 3.94553 35.0094 3.19321ZM28.4122 4.35062C27.1391 4.75571 25.7502 4.92932 24.4191 4.98719C22.2779 5.10293 20.1367 5.27655 17.9955 5.21868C15.102 5.1608 12.1506 5.1608 9.25709 4.69784C8.73626 4.63997 8.15756 4.46636 7.63673 4.35062C7.40525 4.29275 7.05802 4.23488 7.05802 3.88766C7.05802 3.5983 7.34737 3.48256 7.57885 3.42469C8.09969 3.30895 8.62052 3.13534 9.19923 3.07747C15.102 2.32515 21.0048 2.32515 26.9076 3.07747C27.4284 3.13534 27.9492 3.30895 28.4122 3.42469C28.6437 3.48256 28.933 3.5983 28.933 3.88766C28.933 4.23488 28.6437 4.29275 28.4122 4.35062Z" fill="#EA5627"/>
<path d="M139.118 18.4799V4.83905H142.041V18.4799H139.118Z" fill="#213367"/>
<path d="M137.379 14.3681H130.227C130.383 15.5958 131.377 16.2583 132.546 16.2583C133.657 16.2583 134.378 15.8296 135.001 14.7384L137.106 15.9271C136.248 17.7004 134.865 18.7527 132.429 18.7527C129.798 18.7527 127.46 16.6871 127.46 13.6471C127.46 10.6071 129.662 8.54154 132.624 8.54154C135.527 8.54154 137.379 10.6851 137.379 13.3743V14.3681ZM132.565 10.802C131.474 10.802 130.675 11.3866 130.344 12.322H134.748C134.514 11.3282 133.657 10.802 132.565 10.802Z" fill="#213367"/>
<path d="M125.848 11.8933V18.4799H122.925V13.2184C122.925 12.1076 122.438 11.3087 121.21 11.3087C120.022 11.3087 119.262 12.283 119.262 13.8225V18.4799H116.339V8.81435H119.262V10.1979C119.963 9.20409 120.996 8.54154 122.399 8.54154C124.601 8.54154 125.848 9.92511 125.848 11.8933Z" fill="#213367"/>
<path d="M114.164 11.8933V18.4799H111.241V13.2184C111.241 12.1076 110.754 11.3087 109.526 11.3087C108.337 11.3087 107.577 12.283 107.577 13.8225V18.4799H104.654V8.81435H107.577V10.1979C108.279 9.20409 109.312 8.54154 110.715 8.54154C112.917 8.54154 114.164 9.92511 114.164 11.8933Z" fill="#213367"/>
<path d="M93.0267 14.6604V8.81437H95.9498V14.0174C95.9498 15.2645 96.5539 15.9855 97.6646 15.9855C98.9702 15.9855 99.6133 14.8748 99.6133 13.4717V8.81437H102.536V18.4799H99.6133V17.0768C99.0677 18.0317 98.2687 18.7527 96.6123 18.7527C94.6441 18.7527 93.0267 17.2912 93.0267 14.6604Z" fill="#213367"/>
<path d="M84.351 13.16V18.4799H81.1941V4.83905H91.5221V7.60619H84.351V10.4708H90.957V13.16H84.351Z" fill="#213367"/>
<path d="M79.2796 14.3681H72.1279C72.2838 15.5958 73.2776 16.2583 74.4469 16.2583C75.5576 16.2583 76.2786 15.8296 76.9022 14.7384L79.0068 15.9271C78.1494 17.7004 76.7658 18.7527 74.3299 18.7527C71.6992 18.7527 69.3608 16.6871 69.3608 13.6471C69.3608 10.6071 71.5628 8.54154 74.5248 8.54154C77.4284 8.54154 79.2796 10.6851 79.2796 13.3743V14.3681ZM74.4663 10.802C73.3751 10.802 72.5761 11.3866 72.2448 12.322H76.6489C76.415 11.3282 75.5576 10.802 74.4663 10.802Z" fill="#213367"/>
<path d="M67.7492 11.8933V18.4799H64.8262V13.2184C64.8262 12.1076 64.339 11.3087 63.1113 11.3087C61.9226 11.3087 61.1627 12.283 61.1627 13.8225V18.4799H58.2396V8.81435H61.1627V10.1979C61.8642 9.20409 62.897 8.54154 64.3 8.54154C66.5021 8.54154 67.7492 9.92511 67.7492 11.8933Z" fill="#213367"/>
<path d="M56.3424 11.6595C56.3424 15.6153 53.3219 18.7527 49.1712 18.7527C45.0205 18.7527 42 15.6153 42 11.6595C42 7.70363 45.0205 4.56624 49.1712 4.56624C53.3219 4.56624 56.3424 7.70363 56.3424 11.6595ZM49.1712 15.8297C51.3537 15.8297 53.1855 14.2707 53.1855 11.6595C53.1855 9.04823 51.3537 7.48928 49.1712 7.48928C46.9886 7.48928 45.1569 9.04823 45.1569 11.6595C45.1569 14.2707 46.9886 15.8297 49.1712 15.8297Z" fill="#213367"/>
<path d="M131.649 26.4658C131.649 26.7955 131.967 26.9514 132.489 27.0474C133.07 27.1613 133.472 27.3951 133.472 27.9108C133.472 28.3665 133.106 28.8342 132.387 28.8342C131.751 28.8342 131.337 28.4504 131.158 27.9827L131.457 27.8029C131.601 28.2586 131.907 28.5344 132.387 28.5344C132.86 28.5344 133.124 28.2885 133.124 27.9288C133.124 27.575 132.872 27.4131 132.321 27.3172C131.769 27.2213 131.325 26.9574 131.325 26.4538C131.325 25.9921 131.769 25.6923 132.315 25.6923C132.914 25.6923 133.256 25.9741 133.442 26.4058L133.16 26.5677C132.998 26.16 132.687 25.9921 132.321 25.9921C131.955 25.9921 131.649 26.16 131.649 26.4658Z" fill="#1E1E1C"/>
<path d="M130.68 27.2932H128.144C128.162 27.9708 128.599 28.5344 129.265 28.5344C129.852 28.5344 130.164 28.2046 130.344 27.8149L130.596 27.9648C130.338 28.4984 129.918 28.8342 129.247 28.8342C128.437 28.8342 127.796 28.1806 127.796 27.2632C127.796 26.3518 128.443 25.6923 129.265 25.6923C130.152 25.6923 130.68 26.3159 130.68 27.1793V27.2932ZM129.265 25.9921C128.683 25.9921 128.239 26.4178 128.144 26.9934H130.302C130.302 26.3279 129.786 25.9921 129.265 25.9921Z" fill="#1E1E1C"/>
<path d="M126.782 28.7502V25.7762H127.129V28.7502H126.782ZM126.734 25.2126V24.7329H127.177V25.2126H126.734Z" fill="#1E1E1C"/>
<path d="M124.497 26.04V25.7762H125.019V24.9727H125.367V25.7762H126.11V26.04H125.367V28.0547C125.367 28.3724 125.511 28.5343 125.792 28.5343C125.858 28.5343 125.948 28.5163 126.014 28.4984L126.044 28.7862C125.954 28.8161 125.87 28.8341 125.72 28.8341C125.337 28.8341 125.019 28.5883 125.019 28.0367V26.04H124.497Z" fill="#1E1E1C"/>
<path d="M123.52 28.7502V25.7762H123.868V28.7502H123.52ZM123.472 25.2126V24.7329H123.916V25.2126H123.472Z" fill="#1E1E1C"/>
<path d="M122.261 28.7502V24.553H122.609V28.7502H122.261Z" fill="#1E1E1C"/>
<path d="M121.002 28.7502V25.7762H121.35V28.7502H121.002ZM120.954 25.2126V24.7329H121.398V25.2126H120.954Z" fill="#1E1E1C"/>
<path d="M117.483 28.7502V24.553H117.831V26.3398C118.053 25.9561 118.461 25.6922 118.982 25.6922C119.768 25.6922 120.337 26.3758 120.337 27.2632C120.337 28.1506 119.75 28.8341 118.91 28.8341C118.407 28.8341 117.993 28.5103 117.831 28.1746V28.7502H117.483ZM118.886 28.5343C119.528 28.5343 119.978 28.0127 119.978 27.2632C119.978 26.5137 119.528 25.992 118.886 25.992C118.245 25.992 117.795 26.5317 117.795 27.2632C117.795 27.9947 118.233 28.5343 118.886 28.5343Z" fill="#1E1E1C"/>
<path d="M116.224 28.7502V25.7762H116.572V28.7502H116.224ZM116.176 25.2126V24.7329H116.62V25.2126H116.176Z" fill="#1E1E1C"/>
<path d="M113.685 26.4658C113.685 26.7955 114.003 26.9514 114.524 27.0474C115.106 27.1613 115.508 27.3951 115.508 27.9108C115.508 28.3665 115.142 28.8342 114.422 28.8342C113.787 28.8342 113.373 28.4504 113.193 27.9827L113.493 27.8029C113.637 28.2586 113.943 28.5344 114.422 28.5344C114.896 28.5344 115.16 28.2885 115.16 27.9288C115.16 27.575 114.908 27.4131 114.356 27.3172C113.805 27.2213 113.361 26.9574 113.361 26.4538C113.361 25.9921 113.805 25.6923 114.35 25.6923C114.95 25.6923 115.292 25.9741 115.478 26.4058L115.196 26.5677C115.034 26.16 114.722 25.9921 114.356 25.9921C113.991 25.9921 113.685 26.16 113.685 26.4658Z" fill="#1E1E1C"/>
<path d="M110.886 26.4658C110.886 26.7955 111.204 26.9514 111.725 27.0474C112.307 27.1613 112.709 27.3951 112.709 27.9108C112.709 28.3665 112.343 28.8342 111.623 28.8342C110.988 28.8342 110.574 28.4504 110.394 27.9827L110.694 27.8029C110.838 28.2586 111.144 28.5344 111.623 28.5344C112.097 28.5344 112.361 28.2885 112.361 27.9288C112.361 27.575 112.109 27.4131 111.558 27.3172C111.006 27.2213 110.562 26.9574 110.562 26.4538C110.562 25.9921 111.006 25.6923 111.552 25.6923C112.151 25.6923 112.493 25.9741 112.679 26.4058L112.397 26.5677C112.235 26.16 111.923 25.9921 111.558 25.9921C111.192 25.9921 110.886 26.16 110.886 26.4658Z" fill="#1E1E1C"/>
<path d="M109.932 27.2632C109.932 28.2586 109.224 28.8342 108.409 28.8342C107.594 28.8342 106.886 28.2586 106.886 27.2632C106.886 26.2679 107.594 25.6923 108.409 25.6923C109.224 25.6923 109.932 26.2679 109.932 27.2632ZM108.409 28.5344C109.081 28.5344 109.584 28.0007 109.584 27.2632C109.584 26.5257 109.081 25.9921 108.409 25.9921C107.737 25.9921 107.234 26.5257 107.234 27.2632C107.234 28.0007 107.737 28.5344 108.409 28.5344Z" fill="#1E1E1C"/>
<path d="M103.543 28.7502V24.553H105.228C106.091 24.553 106.655 25.0507 106.655 25.8421C106.655 26.6336 106.091 27.1313 105.228 27.1313H103.903V28.7502H103.543ZM103.903 24.8648V26.8195H105.216C105.942 26.8195 106.295 26.4657 106.295 25.8421C106.295 25.2186 105.942 24.8648 105.216 24.8648H103.903Z" fill="#1E1E1C"/>
<path d="M99.2746 26.4658C99.2746 26.7955 99.5924 26.9514 100.114 27.0474C100.696 27.1613 101.097 27.3951 101.097 27.9108C101.097 28.3665 100.732 28.8342 100.012 28.8342C99.3765 28.8342 98.9628 28.4504 98.7829 27.9827L99.0827 27.8029C99.2266 28.2586 99.5324 28.5344 100.012 28.5344C100.486 28.5344 100.75 28.2885 100.75 27.9288C100.75 27.575 100.498 27.4131 99.9461 27.3172C99.3945 27.2213 98.9508 26.9574 98.9508 26.4538C98.9508 25.9921 99.3945 25.6923 99.9401 25.6923C100.54 25.6923 100.881 25.9741 101.067 26.4058L100.786 26.5677C100.624 26.16 100.312 25.9921 99.9461 25.9921C99.5804 25.9921 99.2746 26.16 99.2746 26.4658Z" fill="#1E1E1C"/>
<path d="M96.4757 26.4658C96.4757 26.7955 96.7935 26.9514 97.3152 27.0474C97.8968 27.1613 98.2985 27.3951 98.2985 27.9108C98.2985 28.3665 97.9328 28.8342 97.2132 28.8342C96.5777 28.8342 96.1639 28.4504 95.9841 27.9827L96.2839 27.8029C96.4278 28.2586 96.7336 28.5344 97.2132 28.5344C97.6869 28.5344 97.9507 28.2885 97.9507 27.9288C97.9507 27.575 97.6989 27.4131 97.1473 27.3172C96.5957 27.2213 96.152 26.9574 96.152 26.4538C96.152 25.9921 96.5957 25.6923 97.1413 25.6923C97.7409 25.6923 98.0827 25.9741 98.2685 26.4058L97.9867 26.5677C97.8248 26.16 97.513 25.9921 97.1473 25.9921C96.7815 25.9921 96.4757 26.16 96.4757 26.4658Z" fill="#1E1E1C"/>
<path d="M95.5063 27.2932H92.97C92.988 27.9708 93.4257 28.5344 94.0913 28.5344C94.6789 28.5344 94.9907 28.2046 95.1705 27.8149L95.4224 27.9648C95.1645 28.4984 94.7448 28.8342 94.0733 28.8342C93.2638 28.8342 92.6223 28.1806 92.6223 27.2632C92.6223 26.3518 93.2698 25.6923 94.0913 25.6923C94.9787 25.6923 95.5063 26.3159 95.5063 27.1793V27.2932ZM94.0913 25.9921C93.5097 25.9921 93.066 26.4178 92.97 26.9934H95.1286C95.1286 26.3279 94.6129 25.9921 94.0913 25.9921Z" fill="#1E1E1C"/>
<path d="M91.5671 28.7502V24.553H91.9148V28.7502H91.5671Z" fill="#1E1E1C"/>
<path d="M90.6572 24.553V28.7502H90.3095V28.1686C90.1356 28.5283 89.7399 28.8341 89.2302 28.8341C88.3908 28.8341 87.8032 28.1506 87.8032 27.2632C87.8032 26.3758 88.4028 25.6922 89.2062 25.6922C89.6919 25.6922 90.0996 25.9321 90.3095 26.3458V24.553H90.6572ZM89.2542 28.5343C89.8958 28.5343 90.3455 27.9947 90.3455 27.2632C90.3455 26.5317 89.8958 25.992 89.2542 25.992C88.6006 25.992 88.1629 26.5137 88.1629 27.2632C88.1629 28.0127 88.6006 28.5343 89.2542 28.5343Z" fill="#1E1E1C"/>
<path d="M87.139 26.7296V28.7502H86.7912V26.7656C86.7912 26.2559 86.4494 25.9921 86.0117 25.9921C85.52 25.9921 85.0524 26.4538 85.0524 27.0654V28.7502H84.7046V25.7762H85.0524V26.3279C85.2682 25.9381 85.6639 25.6923 86.0957 25.6923C86.6413 25.6923 87.139 25.9801 87.139 26.7296Z" fill="#1E1E1C"/>
<path d="M81.4741 28.7502V24.553H83.9564V24.8648H81.8338V26.4238H83.7885V26.7355H81.8338V28.4384H83.9744V28.7502H81.4741Z" fill="#1E1E1C"/>
<path d="M78.5231 28.7502V28.2586H79.0028V28.7502L78.6251 29.4338L78.5291 29.3978L78.703 28.7502H78.5231Z" fill="#1E1E1C"/>
<path d="M77.7812 26.5377V28.7502H77.4334V26.6217C77.4334 26.19 77.2056 25.9921 76.8038 25.9921C76.3961 25.9921 75.9944 26.3698 75.9944 27.1853V28.7502H75.6466V26.6456C75.6466 26.2619 75.4487 25.9921 75.047 25.9921C74.6093 25.9921 74.2256 26.4178 74.2256 27.1553V28.7502H73.8778V25.7762H74.2256V26.2739C74.3695 25.9681 74.7172 25.6923 75.131 25.6923C75.4907 25.6923 75.8265 25.9022 75.9464 26.2919C76.1203 25.9561 76.4741 25.6923 76.8878 25.6923C77.4154 25.6923 77.7812 26.0041 77.7812 26.5377Z" fill="#1E1E1C"/>
<path d="M73.3263 25.7223L73.2664 26.0221C73.2004 26.0041 73.1225 25.9921 73.0445 25.9921C72.5948 25.9921 72.2231 26.5137 72.2231 27.1253V28.7502H71.8753V25.7762H72.2231V26.3399C72.349 25.9861 72.6908 25.6923 73.0805 25.6923C73.1764 25.6923 73.2364 25.6983 73.3263 25.7223Z" fill="#1E1E1C"/>
<path d="M71.1691 27.2632C71.1691 28.2586 70.4615 28.8342 69.6461 28.8342C68.8306 28.8342 68.1231 28.2586 68.1231 27.2632C68.1231 26.2679 68.8306 25.6923 69.6461 25.6923C70.4615 25.6923 71.1691 26.2679 71.1691 27.2632ZM69.6461 28.5344C70.3176 28.5344 70.8213 28.0007 70.8213 27.2632C70.8213 26.5257 70.3176 25.9921 69.6461 25.9921C68.9745 25.9921 68.4709 26.5257 68.4709 27.2632C68.4709 28.0007 68.9745 28.5344 69.6461 28.5344Z" fill="#1E1E1C"/>
<path d="M66.317 26.04V25.7762H66.7906V25.1586C66.7906 24.625 67.0485 24.2532 67.6421 24.2532C67.756 24.2532 67.8579 24.2772 67.9239 24.3072L67.8699 24.601C67.798 24.571 67.726 24.553 67.6241 24.553C67.3663 24.553 67.1384 24.7149 67.1384 25.1286V25.7762H67.8639V26.04H67.1384V28.7502H66.7906V26.04H66.317Z" fill="#1E1E1C"/>
<path d="M64.3504 26.04V25.7762H64.8721V24.9727H65.2198V25.7762H65.9633V26.04H65.2198V28.0547C65.2198 28.3724 65.3637 28.5343 65.6455 28.5343C65.7115 28.5343 65.8014 28.5163 65.8674 28.4984L65.8974 28.7862C65.8074 28.8161 65.7235 28.8341 65.5736 28.8341C65.1898 28.8341 64.8721 28.5883 64.8721 28.0367V26.04H64.3504Z" fill="#1E1E1C"/>
<path d="M64.0275 28.7502H63.6798C63.5898 28.6363 63.4879 28.4384 63.4879 28.1087C63.344 28.5224 62.8883 28.8342 62.4386 28.8342C61.833 28.8342 61.4493 28.4504 61.4493 27.9288C61.4493 27.3592 61.911 27.0594 62.4386 26.9814L63.4999 26.8075V26.6636C63.4999 26.2139 63.2061 26.0041 62.7264 26.0041C62.1988 26.0041 61.929 26.2799 61.929 26.5617C61.929 26.5917 61.923 26.6037 61.9409 26.6516L61.6591 26.7476C61.6292 26.6816 61.6172 26.6037 61.6172 26.5197C61.6172 26.058 62.0849 25.6923 62.7264 25.6923C63.4519 25.6923 63.8477 26.052 63.8477 26.6277V28.0067C63.8477 28.3485 63.8836 28.5104 64.0275 28.7502ZM62.4686 28.5104C63.1461 28.5104 63.4999 27.8329 63.4999 27.2572V27.1073L62.4986 27.2752C62.0489 27.3532 61.797 27.587 61.797 27.9228C61.797 28.2646 62.0609 28.5104 62.4686 28.5104Z" fill="#1E1E1C"/>
<path d="M60.387 28.7502V24.553H60.7347V28.7502H60.387Z" fill="#1E1E1C"/>
<path d="M56.6002 28.7502V24.553H58.285C59.1484 24.553 59.7121 25.0507 59.7121 25.8421C59.7121 26.6336 59.1484 27.1313 58.285 27.1313H56.9599V28.7502H56.6002ZM56.9599 24.8648V26.8195H58.273C58.9985 26.8195 59.3523 26.4657 59.3523 25.8421C59.3523 25.2186 58.9985 24.8648 58.273 24.8648H56.9599Z" fill="#1E1E1C"/>
<path d="M54.1494 27.2932H51.6131C51.6311 27.9708 52.0688 28.5344 52.7343 28.5344C53.3219 28.5344 53.6337 28.2046 53.8136 27.8149L54.0654 27.9648C53.8076 28.4984 53.3879 28.8342 52.7163 28.8342C51.9069 28.8342 51.2653 28.1806 51.2653 27.2632C51.2653 26.3518 51.9129 25.6923 52.7343 25.6923C53.6217 25.6923 54.1494 26.3159 54.1494 27.1793V27.2932ZM52.7343 25.9921C52.1527 25.9921 51.709 26.4178 51.6131 26.9934H53.7716C53.7716 26.3279 53.256 25.9921 52.7343 25.9921Z" fill="#1E1E1C"/>
<path d="M50.601 26.7296V28.7502H50.2532V26.7656C50.2532 26.2559 49.9115 25.9921 49.4737 25.9921C48.9821 25.9921 48.5144 26.4538 48.5144 27.0654V28.7502H48.1666V25.7762H48.5144V26.3279C48.7302 25.9381 49.126 25.6923 49.5577 25.6923C50.1033 25.6923 50.601 25.9801 50.601 26.7296Z" fill="#1E1E1C"/>
<path d="M47.378 26.6516C47.378 27.9827 46.5086 28.8342 45.4054 28.8342C44.3021 28.8342 43.4327 27.9827 43.4327 26.6516C43.4327 25.3205 44.3021 24.4691 45.4054 24.4691C46.5086 24.4691 47.378 25.3205 47.378 26.6516ZM45.4054 28.5224C46.3407 28.5224 47.0183 27.7729 47.0183 26.6516C47.0183 25.5304 46.3407 24.7809 45.4054 24.7809C44.47 24.7809 43.7924 25.5304 43.7924 26.6516C43.7924 27.7729 44.47 28.5224 45.4054 28.5224Z" fill="#1E1E1C"/>
</svg>
