<svg width="1440" height="464" viewBox="0 0 1440 464" fill="none" xmlns="http://www.w3.org/2000/svg">
  <g clip-path="url(#clip0_924_19131)">
    <rect width="1440" height="464" transform="translate(0 0.000244141)" fill="url(#paint0_linear_924_19131)"/>
    <ellipse cx="239.881" cy="232" rx="305" ry="303.045" transform="rotate(90 239.881 232)" fill="url(#paint1_linear_924_19131)" fill-opacity="0.2"/>
    <ellipse cx="561.67" cy="232" rx="305" ry="303.045" transform="rotate(90 561.67 232)" fill="url(#paint2_linear_924_19131)" fill-opacity="0.2"/>
    <ellipse cx="-49.209" cy="232" rx="305" ry="303.045" transform="rotate(90 -49.209 232)" fill="url(#paint3_linear_924_19131)" fill-opacity="0.2"/>
    <ellipse cx="1388.33" cy="232" rx="305" ry="303.045" transform="rotate(90 1388.33 232)" fill="url(#paint4_linear_924_19131)" fill-opacity="0.2"/>
    <ellipse cx="1710.12" cy="232" rx="305" ry="303.045" transform="rotate(90 1710.12 232)" fill="url(#paint5_linear_924_19131)" fill-opacity="0.2"/>
    <ellipse cx="1099.24" cy="232" rx="305" ry="303.045" transform="rotate(90 1099.24 232)" fill="url(#paint6_linear_924_19131)" fill-opacity="0.2"/>
    <ellipse cx="810.158" cy="232" rx="305" ry="303.045" transform="rotate(90 810.158 232)" fill="url(#paint7_linear_924_19131)" fill-opacity="0.2"/>
  </g>
  <defs>
    <linearGradient id="paint0_linear_924_19131" x1="720" y1="0" x2="720" y2="387.5" gradientUnits="userSpaceOnUse">
      <stop stop-color="#0F1545"/>
      <stop offset="1" stop-color="#05081A"/>
    </linearGradient>
    <linearGradient id="paint1_linear_924_19131" x1="242.724" y1="-17.7154" x2="270.79" y2="572.654" gradientUnits="userSpaceOnUse">
      <stop stop-color="#080A11" stop-opacity="0"/>
      <stop offset="1" stop-color="#030407"/>
    </linearGradient>
    <linearGradient id="paint2_linear_924_19131" x1="564.513" y1="-17.7154" x2="592.579" y2="572.654" gradientUnits="userSpaceOnUse">
      <stop stop-color="#080A11" stop-opacity="0"/>
      <stop offset="1" stop-color="#030407"/>
    </linearGradient>
    <linearGradient id="paint3_linear_924_19131" x1="-46.3663" y1="-17.7154" x2="-18.2996" y2="572.654" gradientUnits="userSpaceOnUse">
      <stop stop-color="#080A11" stop-opacity="0"/>
      <stop offset="1" stop-color="#030407"/>
    </linearGradient>
    <linearGradient id="paint4_linear_924_19131" x1="1391.17" y1="-17.7154" x2="1419.24" y2="572.654" gradientUnits="userSpaceOnUse">
      <stop stop-color="#030407"/>
      <stop offset="1" stop-color="#121F45" stop-opacity="0"/>
    </linearGradient>
    <linearGradient id="paint5_linear_924_19131" x1="1712.97" y1="-17.7154" x2="1741.03" y2="572.654" gradientUnits="userSpaceOnUse">
      <stop stop-color="#030407"/>
      <stop offset="1" stop-color="#121F45" stop-opacity="0"/>
    </linearGradient>
    <linearGradient id="paint6_linear_924_19131" x1="1102.08" y1="-17.7154" x2="1130.15" y2="572.654" gradientUnits="userSpaceOnUse">
      <stop stop-color="#030407"/>
      <stop offset="1" stop-color="#121F45" stop-opacity="0"/>
    </linearGradient>
    <linearGradient id="paint7_linear_924_19131" x1="813.001" y1="-17.7154" x2="841.068" y2="572.654" gradientUnits="userSpaceOnUse">
      <stop stop-color="#030407"/>
      <stop offset="1" stop-color="#121F45" stop-opacity="0"/>
    </linearGradient>
    <clipPath id="clip0_924_19131">
      <rect width="1440" height="464" fill="white" transform="translate(0 0.000244141)"/>
    </clipPath>
  </defs>
</svg>
