<svg width="36" height="34" viewBox="0 0 36 34" fill="none" xmlns="http://www.w3.org/2000/svg">
<path d="M14.8127 13.8414C17.4169 13.9571 20.5419 13.6678 23.6669 13.9571C24.4771 14.015 25.2294 14.2465 25.9817 14.5937C27.9493 15.4617 28.7595 17.0242 28.1229 19.1076C27.3127 21.6539 26.2132 24.0266 24.8243 26.3414C24.7086 26.5729 24.5928 26.8622 24.3035 26.8044C24.072 26.7465 24.0141 26.3993 23.9563 26.2256C23.0303 23.853 21.41 22.3483 18.7479 22.2326C17.3012 22.1168 15.8544 22.2326 14.3498 22.2905C13.5396 22.2905 12.6715 22.3483 11.8613 22.1747C10.4146 21.8854 9.19931 21.2488 8.447 19.8599C7.52107 18.0659 6.42153 16.3877 5.37986 14.6516C5.03264 14.0729 5.14838 13.8992 5.78495 13.8992C8.67848 13.8414 11.4563 13.8414 14.8127 13.8414Z" fill="#EA5627"/>
<path d="M14.7548 24.8946C16.3173 24.8946 17.8798 25.0104 19.4423 25.2418C21.6414 25.5891 22.6831 26.8622 22.5673 29.1192C22.4516 30.9131 21.5257 32.4178 20.1947 32.8807C18.69 33.4016 16.5488 32.765 15.4493 31.5497C13.9446 29.8136 13.0187 27.7303 12.0928 25.6469C11.8613 25.184 11.9771 24.9525 12.5558 24.9525C13.3081 24.8946 14.0025 24.8946 14.7548 24.8946Z" fill="#EA5627"/>
<path d="M35.0094 3.19321C33.852 2.38302 32.4631 2.0358 31.0742 1.74645C27.4284 0.994133 23.7247 0.936262 21.4678 0.936262C15.5071 0.936262 10.9353 1.28348 6.36357 1.80432C4.56959 2.0358 2.83348 2.32515 1.15524 3.07747C-0.117914 3.65617 -0.291518 4.23488 0.402927 5.45016C1.09737 6.60757 1.79181 7.7071 2.37052 8.86451C3.23857 10.5428 4.62747 11.4687 6.47932 11.5844C7.75247 11.7002 9.08349 11.5844 10.3566 11.5266C14.7548 11.2372 19.0951 11.0057 23.4932 11.0057C26.6761 11.0057 29.0488 12.3946 30.2062 15.5196C30.2641 15.6932 30.2641 15.9247 30.5534 15.9247C30.7849 15.9247 30.8428 15.6932 30.9006 15.5196C32.7525 12.3946 34.3729 9.15387 35.7039 5.73951C36.2826 4.69784 35.9932 3.94553 35.0094 3.19321ZM28.4122 4.35062C27.1391 4.75571 25.7502 4.92932 24.4191 4.98719C22.2779 5.10293 20.1367 5.27655 17.9955 5.21868C15.102 5.1608 12.1506 5.1608 9.25709 4.69784C8.73626 4.63997 8.15756 4.46636 7.63673 4.35062C7.40525 4.29275 7.05802 4.23488 7.05802 3.88766C7.05802 3.5983 7.34737 3.48256 7.57885 3.42469C8.09969 3.30895 8.62052 3.13534 9.19923 3.07747C15.102 2.32515 21.0048 2.32515 26.9076 3.07747C27.4284 3.13534 27.9492 3.30895 28.4122 3.42469C28.6437 3.48256 28.933 3.5983 28.933 3.88766C28.933 4.23488 28.6437 4.29275 28.4122 4.35062Z" fill="#EA5627"/>
</svg>
